<?xml version="1.0" encoding="UTF-8" standalone="no"?>
<!-- Created with Inkscape (http://www.inkscape.org/) -->

<svg
   width="25mm"
   height="28mm"
   viewBox="0 0 25 28"
   version="1.1"
   id="svg1"
   xml:space="preserve"
   inkscape:version="1.3 (0e150ed6c4, 2023-07-21)"
   sodipodi:docname="STAGE 3.svg"
   xmlns:inkscape="http://www.inkscape.org/namespaces/inkscape"
   xmlns:sodipodi="http://sodipodi.sourceforge.net/DTD/sodipodi-0.dtd"
   xmlns="http://www.w3.org/2000/svg"
   xmlns:svg="http://www.w3.org/2000/svg"><sodipodi:namedview
     id="namedview1"
     pagecolor="#ffffff"
     bordercolor="#000000"
     borderopacity="0.25"
     inkscape:showpageshadow="2"
     inkscape:pageopacity="0.0"
     inkscape:pagecheckerboard="0"
     inkscape:deskcolor="#d1d1d1"
     inkscape:document-units="mm"
     inkscape:zoom="1.9593693"
     inkscape:cx="42.870938"
     inkscape:cy="59.457908"
     inkscape:window-width="1600"
     inkscape:window-height="829"
     inkscape:window-x="1912"
     inkscape:window-y="-8"
     inkscape:window-maximized="1"
     inkscape:current-layer="pokebola" /><defs
     id="defs1" /><g
     inkscape:label="pokebola"
     inkscape:groupmode="layer"
     id="pokebola"><path
       style="fill:#ff0000;stroke:#000000;stroke-width:0;stroke-linecap:round;stroke-linejoin:round;stroke-dasharray:none;paint-order:stroke fill markers"
       d="m 19.474242,11.169455 c -1.236881,-0.0408 -2.260221,-0.0858 -2.274093,-0.1 -0.01387,-0.0142 -0.109946,-0.27577 -0.213502,-0.58132 -0.333347,-0.9835504 -0.637397,-1.49866 -1.243064,-2.10598 -0.438846,-0.44004 -0.814619,-0.70775 -1.391606,-0.9914 -0.723242,-0.35557 -1.221827,-0.47149 -2.027863,-0.47149 -0.565386,0 -0.727763,0.0174 -1.101066,0.11838 -0.958531,0.25912 -1.5820705,0.62232 -2.1976705,1.28008 -0.474651,0.50715 -0.599236,1.4385796 -0.938615,2.27363 -0.140096,0.3447 -0.51317,0.30918 -0.555923,0.35806 -0.205207,0.23461 -0.238953,0.23781 -2.674881,0.2532 l -2.276983,0.0144 0.02304,-0.1074 c 0.01268,-0.0591 0.07563,-0.43447 0.139904,-0.83424 0.182531,-1.1353704 0.27095,-1.8243387 0.780688,-2.8409587 1.068358,-2.13071 3.013808,-4.1851737 5.078503,-5.0935537 1.119489,-0.49253 1.6637075,-0.4917576 3.9267175,-0.4889476 1.934189,0.002 2.64738,-0.046296 3.39427,0.2211042 0.885846,0.31703 1.788399,1.1841658 2.584573,1.8270258 1.668347,1.34708 2.99083,3.5092887 3.495849,5.4061386 0.09824,0.36901 0.153043,1.6986114 0.154614,1.8936714 2.7e-4,0.0394 -0.06949,0.0558 -0.216783,0.051 -0.119491,-0.004 -1.229245,-0.0406 -2.466124,-0.0814 z"
       id="fundo-cima"
       sodipodi:nodetypes="sssssscsssscssssccssccss"
       inkscape:label="fundo-cima" /><path
       style="fill:#ffffff;stroke:#000000;stroke-width:0;stroke-linecap:round;stroke-linejoin:round;stroke-dasharray:none;paint-order:stroke fill markers"
       d="m 5.1451735,11.016705 c 1.258514,0.0593 2.299608,0.11999 2.313547,0.13494 0.01393,0.015 0.10839,0.28884 0.209894,0.60861 0.326742,1.0294 0.629653,1.57027 1.238405,2.21129 0.44108,0.46448 0.820159,0.74852 1.4038595,1.05189 0.731649,0.3803 1.237682,0.50783 2.058156,0.51873 0.575512,0.008 0.74102,-0.009 1.1223,-0.10845 0.979012,-0.25704 1.618362,-0.62705 2.253398,-1.30412 0.489635,-0.52204 0.851258,-1.11532 1.207391,-1.98087 0.147013,-0.35729 0.303418,-0.69083 0.347562,-0.74118 0.211881,-0.24168 0.246273,-0.24455 2.726029,-0.22765 l 2.317949,0.0158 -0.02482,0.11161 c -0.01366,0.0614 -0.08254,0.4517 -0.153076,0.86739 -0.200315,1.18063 -0.418658,1.84655 -0.950524,2.89897 -1.114734,2.20579 -2.688651,4.522169 -4.80194,5.440769 -1.145837,0.49808 -1.919059,0.10713 -4.222568,0.0736 -1.968802,-0.0287 -2.6300825,0.15417 -3.3869315,-0.13441 -0.89766,-0.34233 -1.735834,-0.63279 -2.53805,-1.31343 -1.681008,-1.426249 -3.036531,-4.181029 -3.526346,-6.164419 -0.09528,-0.38583 -0.325682,-1.82378 -0.324786,-2.02707 2.28e-4,-0.0411 0.07145,-0.0573 0.221316,-0.0502 0.121581,0.005 1.250744,0.0589 2.509255,0.11817 z"
       id="fundo-baixo"
       sodipodi:nodetypes="ccsscccsssscssssscsscccc"
       inkscape:label="fundo-baixo" /><path
       style="fill:#ffffff;stroke:#000000;stroke-width:0.079141;stroke-linecap:round;stroke-linejoin:round;stroke-dasharray:none;paint-order:stroke fill markers"
       d="m 11.721116,15.272033 c -0.833259,-0.18609 -1.51716,-0.55225 -2.0946095,-1.12146 -1.1521895,-1.13578 -1.4660625,-2.67366 -0.8612205,-4.21972 0.443062,-1.13252 1.427509,-1.96147 2.724759,-2.29437 0.553649,-0.14208 1.429317,-0.13393 2.013571,0.0188 1.597034,0.41731 2.698859,1.66337 2.892531,3.27121 0.105025,0.87188 -0.146907,1.85197 -0.674617,2.62442 -0.231644,0.33908 -0.786389,0.88638 -1.128845,1.11368 -0.336923,0.22364 -0.792212,0.43733 -1.169539,0.54893 -0.387925,0.11472 -1.308641,0.14641 -1.70203,0.0585 z"
       id="botao-fundo"
       inkscape:label="botao-fundo" /><g
       id="estrelas"
       inkscape:label="estrelas"><path
         style="fill:#ffcc00;fill-opacity:1;stroke:#000000;stroke-width:0;stroke-linecap:round;stroke-linejoin:round;paint-order:stroke fill markers"
         d="m 20.181338,23.860564 c 0.177498,-0.887398 0.151337,-1.066855 -0.217134,-1.489526 -0.40272,-0.461955 -0.332994,-0.603695 0.334679,-0.680334 0.293539,-0.0337 0.352257,-0.05628 0.456465,-0.175663 0.06578,-0.07534 0.152144,-0.251605 0.191929,-0.391685 0.03979,-0.140078 0.118842,-0.310023 0.175679,-0.377655 l 0.103344,-0.122968 0.0938,0.155716 c 0.05159,0.08565 0.108301,0.217567 0.126024,0.293161 0.09864,0.420763 0.307781,0.618285 0.65514,0.618746 0.241298,3.12e-4 0.50205,0.07269 0.571779,0.158681 0.07967,0.09826 0.01944,0.228943 -0.245706,0.533091 -0.310805,0.356521 -0.355274,0.545691 -0.260721,1.109086 0.03739,0.22277 0.059,0.414224 0.04803,0.42545 -0.01097,0.01118 -0.19486,-0.09199 -0.408648,-0.229369 -0.213789,-0.137378 -0.446241,-0.262713 -0.516561,-0.278522 -0.16523,-0.03714 -0.357499,0.0469 -0.788873,0.344841 l -0.345577,0.238679 z"
         id="path7"
         inkscape:label="direita" /><path
         style="fill:#ffcc00;stroke:#e69e9e;stroke-width:0;stroke-linecap:round;stroke-linejoin:round;paint-order:stroke fill markers"
         d="m 10.93782,23.54748 c 0.167944,-0.966771 0.08785,-1.381359 -0.367163,-1.900379 -0.231494,-0.264053 -0.420898,-0.559411 -0.420898,-0.656319 0,-0.241286 0.371085,-0.425743 0.856539,-0.425743 0.529887,0 0.842398,-0.288613 1.098279,-1.01433 0.114898,-0.325856 0.261072,-0.597055 0.32483,-0.602649 0.06376,-0.0046 0.230279,0.285466 0.370049,0.646773 0.290795,0.75176 0.521059,0.969529 1.027597,0.97185 0.989823,0.0046 1.111992,0.297069 0.459972,1.101303 -0.42394,0.522926 -0.424074,0.523466 -0.362243,1.453075 l 0.06185,0.929943 -0.601097,-0.417171 c -0.331482,-0.230051 -0.748581,-0.417149 -0.92991,-0.417149 -0.180846,0 -0.616332,0.189522 -0.967747,0.42118 l -0.638932,0.421204 z"
         id="path2"
         inkscape:label="centro" /><path
         style="fill:#ffcc00;fill-opacity:1;stroke:#000000;stroke-width:0;stroke-linecap:round;stroke-linejoin:round;paint-order:stroke fill markers"
         d="m 2.7372504,23.953388 c 8.744e-4,-0.01972 0.031176,-0.165561 0.067307,-0.32407 0.036131,-0.15851 0.066419,-0.400141 0.067307,-0.536958 0.00175,-0.270799 -0.062549,-0.392611 -0.3834066,-0.726265 -0.1929135,-0.200608 -0.2483903,-0.348413 -0.1665073,-0.443621 0.073656,-0.08564 0.3396354,-0.15477 0.5974761,-0.155285 0.2964007,-6.03e-4 0.4771126,-0.121656 0.5736266,-0.384289 0.2342122,-0.637337 0.2988058,-0.710716 0.4361241,-0.495443 0.051947,0.08144 0.1234922,0.241122 0.1589898,0.354857 0.1239883,0.397258 0.2784285,0.524582 0.6368638,0.52504 0.2453441,3.01e-4 0.5115079,0.07104 0.5838274,0.15512 0.088176,0.10252 0.018926,0.260723 -0.2284842,0.521946 -0.1256615,0.132679 -0.2497536,0.295238 -0.2757602,0.361245 -0.064953,0.164857 -0.056672,0.480107 0.021637,0.823653 0.036131,0.158509 0.066419,0.302505 0.067307,0.319992 8.742e-4,0.01749 -0.1951488,-0.08783 -0.4356367,-0.234029 -0.240488,-0.146203 -0.4958956,-0.277141 -0.567572,-0.290974 -0.145219,-0.02803 -0.3756308,0.07049 -0.7871326,0.336546 -0.3384474,0.218823 -0.3678456,0.234289 -0.3659662,0.192535 z"
         id="path3"
         inkscape:label="esquerda" /></g><path
       style="fill:#ffffff;stroke:#000000;stroke-width:0.464059;stroke-linecap:round;stroke-linejoin:round;stroke-dasharray:none;paint-order:stroke fill markers"
       id="botao"
       sodipodi:type="arc"
       sodipodi:cx="12.468686"
       sodipodi:cy="11.449812"
       sodipodi:rx="3.0514987"
       sodipodi:ry="3.0334427"
       sodipodi:start="0"
       sodipodi:end="6.281941"
       sodipodi:open="true"
       sodipodi:arc-type="arc"
       d="m 15.520185,11.449812 a 3.0514987,3.0334427 0 0 1 -3.05055,3.033443 3.0514987,3.0334427 0 0 1 -3.052447,-3.031556 3.0514987,3.0334427 0 0 1 3.04865,-3.0353285 3.0514987,3.0334427 0 0 1 3.054344,3.0296665"
       inkscape:label="botao" /><g
       id="borda"
       transform="translate(-2.7822969,-27.439202)"
       style="display:inline"
       inkscape:label="borda"><path
         style="fill:#000000"
         d="m 12.602976,52.162628 c 0,-0.25562 0.1185,-0.87794 0.26333,-1.38293 0.25181,-0.87803 0.21422,-0.96082 -0.8599,-1.89379 -1.32327,-1.14939 -1.17895,-1.48125 0.69598,-1.60045 1.26025,-0.0801 1.30076,-0.10952 1.75412,-1.27265 0.25524,-0.65484 0.61178,-1.19062 0.79231,-1.19062 0.18052,0 0.53706,0.53578 0.7923,1.19062 0.45336,1.16313 0.49387,1.19252 1.75412,1.27265 1.87493,0.1192 2.01925,0.45106 0.69598,1.60045 -1.07412,0.93297 -1.11171,1.01576 -0.8599,1.89379 0.57257,1.99642 0.2329,2.28292 -1.39504,1.1767 l -0.98746,-0.671 -0.98747,0.671 c -1.15911,0.78764 -1.65837,0.84973 -1.65837,0.20623 z m 3.34676,-1.51808 0.70092,0.45926 -0.15921,-0.79605 c -0.1181,-0.59052 -0.0274,-0.91531 0.35117,-1.25795 0.61655,-0.55796 0.45363,-0.92033 -0.41375,-0.92033 -0.46287,0 -0.68691,-0.18368 -0.80682,-0.66146 -0.0913,-0.3638 -0.25927,-0.66146 -0.37323,-0.66146 -0.11397,0 -0.28193,0.29766 -0.37324,0.66146 -0.11991,0.47778 -0.34395,0.66146 -0.80682,0.66146 -0.86738,0 -1.03029,0.36237 -0.41375,0.92033 0.37861,0.34264 0.46927,0.66743 0.35117,1.25795 l -0.15921,0.79605 0.70092,-0.45926 c 0.66536,-0.43596 0.73649,-0.43596 1.40185,0 z m -8.4551997,-4.88717 c -1.977671,-2.13612 -2.662565,-3.91464 -2.652639,-6.88832 0.02017,-6.043391 4.378987,-10.398813 10.4069187,-10.398813 4.60852,0 8.16148,2.448031 9.87215,6.802053 0.76059,1.93585 0.7308,5.31763 -0.065,7.37622 -0.66734,1.72634 -3.20348,4.68721 -4.01485,4.68721 -0.27537,0 -0.50067,-0.0785 -0.50067,-0.17452 0,-0.096 0.66004,-0.86649 1.46675,-1.71225 1.56578,-1.64155 2.36796,-3.13489 2.65787,-4.94789 l 0.17967,-1.12364 -2.46147,0.0765 -2.46147,0.0765 -0.25935,0.79375 c -1.37617,4.21181 -7.38702,4.27455 -8.79228,0.0918 l -0.29751,-0.88553 -2.4599147,-0.0765 -2.459917,-0.0765 0.179677,1.12364 c 0.289911,1.813 1.092091,3.30634 2.657864,4.94789 0.806712,0.84576 1.46675,1.61627 1.46675,1.71225 0,0.096 -0.225301,0.17452 -0.500668,0.17452 -0.275367,0 -1.15824,-0.71026 -1.961941,-1.57835 z m 10.3295497,-4.31304 c 1.18373,-1.18372 1.45252,-2.97387 0.66171,-4.40692 -1.38656,-2.51261 -5.28327,-2.42209 -6.53552,0.15184 -1.837531,3.7769 2.91163,7.21726 5.87381,4.25508 z m -7.06118,-3.83205 c 0.72044,-1.98941 1.88315,-3.04606 3.71617,-3.37719 2.1068,-0.38058 4.45677,1.02847 5.14835,3.08698 l 0.29751,0.88552 2.45992,0.0765 2.45991,0.0765 -0.17586,-1.13488 c -0.4331,-2.79482 -2.62863,-5.648762 -5.388,-7.003762 -1.34196,-0.658981 -1.81086,-0.745701 -4.03209,-0.745701 -2.15201,0 -2.72286,0.0984 -3.96875,0.684311 -2.7356077,1.28641 -5.0127347,4.234212 -5.4496847,7.054762 l -0.174201,1.12448 h 2.421614 c 2.4014917,0 2.4238017,-0.006 2.6851117,-0.72761 z"
         id="path1"
         sodipodi:nodetypes="ssscssscscscssscscssssssscsscssscsscscccsscccssssccsscsccccccssscscscc" /><path
         d="m 22.160101,51.957911 c 0,-0.172864 0.08014,-0.593707 0.178076,-0.935209 0.170288,-0.593768 0.144867,-0.649754 -0.581507,-1.280676 -0.894863,-0.777276 -0.797266,-1.001696 0.470657,-1.082306 0.852245,-0.05417 0.87964,-0.07405 1.186225,-0.860632 0.172606,-0.442835 0.413717,-0.805156 0.5358,-0.805156 0.122078,0 0.363188,0.362321 0.535794,0.805156 0.306586,0.786569 0.33398,0.806445 1.186226,0.860632 1.267923,0.08061 1.365519,0.30503 0.470656,1.082306 -0.726375,0.630922 -0.751794,0.686908 -0.581507,1.280676 0.387201,1.350082 0.157498,1.543828 -0.943398,0.795746 l -0.667771,-0.453765 -0.667776,0.453765 c -0.78385,0.532642 -1.121475,0.574631 -1.121475,0.139463 z m 2.263249,-1.026604 0.473998,0.310575 -0.107665,-0.538329 c -0.07985,-0.39934 -0.01853,-0.618978 0.237479,-0.850689 0.416943,-0.377321 0.306768,-0.622374 -0.279798,-0.622374 -0.313017,0 -0.464524,-0.124214 -0.545613,-0.447313 -0.06173,-0.246021 -0.175332,-0.447314 -0.252398,-0.447314 -0.07706,0 -0.190654,0.201293 -0.252403,0.447314 -0.08109,0.323099 -0.232597,0.447313 -0.545613,0.447313 -0.586567,0 -0.696735,0.245053 -0.279799,0.622374 0.256036,0.231711 0.317344,0.451349 0.23748,0.850689 l -0.107665,0.538329 0.473998,-0.310575 c 0.44995,-0.294818 0.498052,-0.294818 0.948002,0 z"
         style="fill:#000000;stroke-width:0.67625"
         id="path1-0" /><path
         d="m 4.809983,51.957911 c 0,-0.172864 0.08014,-0.593707 0.1780759,-0.935209 0.170288,-0.593768 0.144867,-0.649754 -0.581507,-1.280676 C 3.5116889,48.96475 3.6092859,48.74033 4.8772089,48.65972 5.729454,48.60555 5.756849,48.58567 6.063434,47.799088 c 0.172606,-0.442835 0.413717,-0.805156 0.5358,-0.805156 0.122078,0 0.3631881,0.362321 0.5357941,0.805156 0.306586,0.786569 0.33398,0.806445 1.186226,0.860632 1.267923,0.08061 1.365519,0.30503 0.470656,1.082306 -0.726375,0.630922 -0.751794,0.686908 -0.581507,1.280676 0.387201,1.350082 0.157498,1.543828 -0.943398,0.795746 L 6.599234,51.364683 5.931458,51.818448 C 5.1476079,52.35109 4.809983,52.393079 4.809983,51.957911 Z m 2.2632491,-1.026604 0.473998,0.310575 -0.107665,-0.538329 c -0.07985,-0.39934 -0.01853,-0.618978 0.237479,-0.850689 0.416943,-0.377321 0.306768,-0.622374 -0.279798,-0.622374 -0.313017,0 -0.464524,-0.124214 -0.545613,-0.447313 -0.06173,-0.246021 -0.1753321,-0.447314 -0.2523981,-0.447314 -0.07706,0 -0.190654,0.201293 -0.252403,0.447314 -0.08109,0.323099 -0.232597,0.447313 -0.545613,0.447313 -0.5865671,0 -0.6967351,0.245053 -0.279799,0.622374 0.256036,0.231711 0.317344,0.451349 0.23748,0.850689 l -0.107665,0.538329 0.473998,-0.310575 c 0.44995,-0.294818 0.498052,-0.294818 0.9480021,0 z"
         style="fill:#000000;stroke-width:0.67625"
         id="path1-0-9" /></g></g></svg>
