<?xml version="1.0" encoding="UTF-8" standalone="no"?>
<!-- Created with Inkscape (http://www.inkscape.org/) -->

<svg
   width="31mm"
   height="20mm"
   viewBox="0 0 31 20"
   version="1.1"
   id="svg1"
   xml:space="preserve"
   inkscape:version="1.3 (0e150ed6c4, 2023-07-21)"
   sodipodi:docname="SETA-pequena.svg"
   xmlns:inkscape="http://www.inkscape.org/namespaces/inkscape"
   xmlns:sodipodi="http://sodipodi.sourceforge.net/DTD/sodipodi-0.dtd"
   xmlns="http://www.w3.org/2000/svg"
   xmlns:svg="http://www.w3.org/2000/svg"><sodipodi:namedview
     id="namedview1"
     pagecolor="#ffffff"
     bordercolor="#000000"
     borderopacity="0.25"
     inkscape:showpageshadow="2"
     inkscape:pageopacity="0.0"
     inkscape:pagecheckerboard="0"
     inkscape:deskcolor="#d1d1d1"
     inkscape:document-units="mm"
     inkscape:zoom="1"
     inkscape:cx="250.5"
     inkscape:cy="249.5"
     inkscape:window-width="1920"
     inkscape:window-height="1009"
     inkscape:window-x="-8"
     inkscape:window-y="-8"
     inkscape:window-maximized="1"
     inkscape:current-layer="layer1" /><defs
     id="defs1" /><g
     inkscape:label="Camada 1"
     inkscape:groupmode="layer"
     id="layer1"
     transform="matrix(0,0.13717279,0.13717279,0,2.0060838,0.23087796)"><path
       style="fill:#ff2a2a;stroke:#ff0000;stroke-width:12.645;stroke-linecap:round;stroke-linejoin:round;paint-order:stroke fill markers"
       d="m 38.312701,25.059503 c 0,-18.448745 0.142483,-24.68234397 0.574032,-25.11389197 0.435252,-0.435256 8.466256,-0.574032 33.218874,-0.574032 h 32.644743 l 0.74467,1.063156 c 0.65,0.92801797 0.74466,4.12031197 0.74466,25.11389497 V 49.599366 H 72.276234 38.312701 Z"
       id="path2" /><path
       style="fill:#ffffff;fill-opacity:1;stroke:#cccccc;stroke-width:2.86697;stroke-linecap:round;stroke-linejoin:round;stroke-dasharray:none;stroke-opacity:1;paint-order:stroke fill markers"
       d="m 72.214776,199.66619 c -1.135141,-1.53677 -39.797923,-58.41062 -53.225402,-78.2958 -3.365463,-4.98404 -6.753205,-9.94356 -7.528311,-11.02119 l -1.409289,-1.95932 10.933847,-0.24491 c 12.261089,-0.27465 12.814392,-0.41794 15.77963,-4.08611 l 1.52124,-1.88187 0.320146,-8.15967 c 0.176081,-4.487815 0.341378,-15.378542 0.367329,-24.201562 l 0.04718,-16.041857 h 34.528855 34.528759 l 0.0275,19.225726 c 0.0152,10.574188 0.19406,21.447993 0.39759,24.163988 0.40948,5.463765 1.06922,6.889755 4.34465,9.390515 l 1.76283,1.34591 11.17055,0.24493 11.17055,0.24491 -18.16235,26.69575 c -9.98931,14.68267 -21.740855,31.98593 -26.11455,38.45169 -11.376875,16.81885 -17.930152,26.35071 -18.637469,27.10853 -0.506437,0.5426 -0.825511,0.37116 -1.823303,-0.97966 z"
       id="path3" /><path
       style="fill:#cccccc;fill-opacity:1;stroke:#cccccc;stroke-width:0;stroke-linecap:round;stroke-linejoin:round;stroke-dasharray:none;stroke-opacity:1;paint-order:stroke fill markers"
       d="m 45.000243,57.21704 -0.221381,47.41908 c -0.252616,6.98701 -6.833416,9.13549 -13.597814,10.74985 l -11.651928,0.0218 56.477053,83.16314 -4.069736,3.55872 -62.851151,-92.18868 20.985194,-0.1044 7.412678,-7.62149 0.104404,-45.415597 h 7.203871 z"
       id="path4"
       sodipodi:nodetypes="cccccccccccc" /><path
       style="fill:#cccccc;fill-opacity:1;stroke:#cccccc;stroke-width:0;stroke-linecap:round;stroke-linejoin:round;stroke-dasharray:none;stroke-opacity:1;paint-order:stroke fill markers"
       d="m -9.346558,-32.617605 h 7.2038667 z"
       id="path4-2"
       sodipodi:nodetypes="ccc" /><rect
       style="fill:#c70000;fill-opacity:1;stroke:#e69e9e;stroke-width:0;stroke-linecap:round;stroke-linejoin:round;stroke-dasharray:none;stroke-opacity:1;paint-order:stroke fill markers"
       id="rect4"
       width="7.205956"
       height="52.683929"
       x="37.776657"
       y="-1.2196339" /><path
       style="fill:#000000"
       d="m 69.674569,208.74356 c -1.170904,-0.44246 -1.748447,-0.80768 -2.662617,-1.68379 -0.88998,-0.85292 -3.65734,-4.86803 -3.51451,-5.09913 0.0553,-0.0894 0.0322,-0.12037 -0.0513,-0.0688 -0.0835,0.0516 -0.24696,-0.091 -0.36331,-0.31683 -0.11634,-0.22584 -0.25951,-0.4467 -0.31814,-0.4908 -0.11613,-0.0873 -0.49276,-0.62273 -2.09382,-2.97647 -0.5779,-0.84958 -1.05074,-1.58047 -1.05074,-1.62419 0,-0.0437 -0.13272,-0.23309 -0.29493,-0.42082 -0.16222,-0.18774 -3.09742,-4.4576 -6.52268,-9.4886 -13.19105,-19.37488 -21.10229,-31.00771 -22.415657,-32.96036 -0.475421,-0.70683 -1.43425,-2.11374 -2.13073,-3.12647 -0.69648,-1.01273 -2.250107,-3.29198 -3.452506,-5.06501 -3.582284,-5.28935 -7.173645,-10.56535 -10.774653,-15.84843 -1.15655,-1.70471 -2.796598,-4.12004 -3.644551,-5.3674 -5.132358,-7.54978 -7.505533,-11.16241 -7.945692,-12.09554 -0.4745507,-1.00604 -0.4992317,-1.14432 -0.4992317,-2.7971 0,-1.47096 0.05109,-1.84935 0.331736,-2.45702 0.4349427,-0.94175 1.7519717,-2.32106 2.6515027,-2.77689 1.606333,-0.81399 1.597805,-0.81346 13.18852,-0.81888 l 10.74083,-0.005 c 1.156695,-0.24115 1.337145,-0.63274 1.814331,-1.67524 l 0.0756,-50.827901 c 0.0709,-47.702149 0.0918,-50.88147497 0.33825,-51.69729697 0.95957,-3.17591893 3.28719,-5.55577403 6.52499,-6.67144193 l 0.92327,-0.318137 32.867029,-0.04144 c 36.69861,-0.04627 34.20014,-0.1159 36.57621,1.019371 1.72642,0.8248759 3.59793,2.670299 4.3314,4.2710379 1.07564,2.34750903 0.99083,-2.235213 0.99083,53.535961 0,55.403707 -0.0837,50.853697 0.95243,51.763447 l 0.51312,0.45053 6.71354,0.10039 c 3.69245,0.0552 8.65839,0.10048 11.03541,0.10058 3.98164,1.8e-4 4.39823,0.0252 5.29181,0.31773 2.0517,0.6717 3.42926,1.89217 4.08571,3.61979 0.37288,0.98134 0.39052,3.10804 0.0345,4.16243 -0.16431,0.48669 -8.59032,13.06808 -24.29459,36.27578 -13.22366,19.54186 -24.99595,36.92543 -26.160634,38.63015 -1.164674,1.70471 -3.588679,5.27668 -5.38668,7.9377 -1.797998,2.66102 -4.081296,6.01907 -5.07399,7.46234 -0.992694,1.44327 -1.903781,2.77 -2.024628,2.94829 -0.653407,0.96399 -2.365808,2.86635 -2.921005,3.24506 -0.351507,0.23976 -1.092944,0.61616 -1.647651,0.83644 -1.359531,0.53989 -3.371909,0.55772 -4.736803,0.042 z m 6.504884,-12.68196 c 2.220248,-3.26391 4.154556,-6.10447 4.298466,-6.31237 0.14392,-0.20789 0.892554,-1.29649 1.663651,-2.4191 0.771084,-1.12262 1.445181,-2.07515 1.497991,-2.11672 0.0528,-0.0416 0.17471,-0.21168 0.270917,-0.37799 0.0962,-0.16631 0.25435,-0.28369 0.35143,-0.26084 0.0971,0.0228 0.129607,-0.0343 0.0723,-0.12705 -0.12738,-0.20611 1.268591,-2.28987 1.456321,-2.17385 0.0736,0.0455 0.0967,-0.0141 0.0513,-0.13241 -0.0454,-0.11833 0.0204,-0.3181 0.146207,-0.44393 0.12583,-0.12582 0.35086,-0.43574 0.500077,-0.6887 0.31031,-0.52605 2.337658,-3.52675 9.110817,-13.48497 2.630045,-3.8668 4.9883,-7.33671 5.24058,-7.71091 0.25227,-0.37421 1.43256,-2.10916 2.62285,-3.85546 2.00165,-2.93663 3.37131,-4.94968 6.58377,-9.67643 0.6782,-0.99789 2.85453,-4.19565 4.83631,-7.10614 1.98177,-2.91049 4.36478,-6.41442 5.29558,-7.7865 0.93079,-1.37209 3.31025,-4.87602 5.28768,-7.78651 1.97743,-2.91049 4.3114,-6.34638 5.18661,-7.63532 0.87522,-1.28893 2.09026,-3.06752 2.70009,-3.95243 0.60984,-0.8849 1.1088,-1.65032 1.1088,-1.70093 0,-0.0506 -4.47346,-0.093 -9.94102,-0.0943 -11.03964,-0.002 -10.9183,0.007 -13.03822,-1.00882 -1.64565,-0.78848 -3.36056,-2.53314 -4.20778,-4.28074 -1.14431,-2.36044 -1.08632,-0.98846 -1.08632,-25.696676 V 57.15192 H 72.018047 37.848142 v 22.156214 c 0,24.649716 0.0496,23.407876 -1.02245,25.576086 -0.96352,1.94862 -2.37953,3.36792 -4.33724,4.34729 -2.009748,1.0054 -1.80432,0.98951 -12.790192,0.98951 -5.457023,0 -9.967367,0.0455 -10.022987,0.10113 -0.05562,0.0556 -0.0081,0.2087 0.105671,0.34018 0.113738,0.13149 1.05617,1.49776 2.094293,3.03616 1.038122,1.5384 2.6077,3.85167 3.487951,5.14061 0.880251,1.28893 2.199207,3.228 2.931013,4.30903 0.731807,1.08104 2.212453,3.25824 3.290325,4.83822 3.63034,5.55775 7.473386,10.9723 11.195656,16.48018 2.7768,4.09331 16.4174,24.15657 17.47497,25.70304 1.18293,1.72979 4.59498,6.7502 7.47909,11.00456 1.08326,1.59792 3.35836,4.94644 5.05578,7.44115 3.18837,4.68598 4.03008,5.93661 5.901973,8.76927 0.604467,0.91472 1.146594,1.69715 1.204734,1.73873 0.0581,0.0416 0.526947,0.70495 1.041804,1.47415 0.514867,0.7692 0.996414,1.39855 1.070104,1.39855 0.0737,0 1.950548,-2.67047 4.170796,-5.93438 z m 14.133019,-19.70934 c 0,-0.12513 -0.293577,-0.19589 -0.360887,-0.087 -0.0437,0.0707 0.0197,0.12847 0.14075,0.12847 0.121077,0 0.220137,-0.0187 0.220137,-0.0415 z m 15.990148,-150.837746 -0.0391,-24.53127897 -0.31554,-0.604778 c -0.17355,-0.332627 -0.5408,-0.757861 -0.81613,-0.944964 l -0.50059,-0.340187 H 72.051397 39.471452 l -0.50161,0.310009 c -0.27588,0.170506 -0.64111,0.535733 -0.81162,0.811617 -0.30923,0.50035 -0.31001,0.563378 -0.31001,25.16623397 v 24.664627 h 34.246855 34.246753 z"
       id="path1"
       sodipodi:nodetypes="csssssssssssscssssssccccscssssscssssssssssssccssssscsssssssssssssssccsscccscsssssssssssssssssssssssccsscccssscccc" /></g></svg>
