<?xml version="1.0" encoding="UTF-8" standalone="no"?>
<!-- Created with Inkscape (http://www.inkscape.org/) -->

<svg
   width="25mm"
   height="28mm"
   viewBox="0 0 25 28"
   version="1.1"
   id="svg1"
   xml:space="preserve"
   inkscape:version="1.3 (0e150ed6c4, 2023-07-21)"
   sodipodi:docname="STAGE 1 BLACKTHEME.svg"
   xmlns:inkscape="http://www.inkscape.org/namespaces/inkscape"
   xmlns:sodipodi="http://sodipodi.sourceforge.net/DTD/sodipodi-0.dtd"
   xmlns="http://www.w3.org/2000/svg"
   xmlns:svg="http://www.w3.org/2000/svg"><sodipodi:namedview
     id="namedview1"
     pagecolor="#000000"
     bordercolor="#000000"
     borderopacity="0.25"
     inkscape:showpageshadow="2"
     inkscape:pageopacity="0.0"
     inkscape:pagecheckerboard="0"
     inkscape:deskcolor="#d1d1d1"
     inkscape:document-units="mm"
     inkscape:zoom="5.6672865"
     inkscape:cx="51.435551"
     inkscape:cy="83.020331"
     inkscape:window-width="1920"
     inkscape:window-height="1009"
     inkscape:window-x="-8"
     inkscape:window-y="-8"
     inkscape:window-maximized="1"
     inkscape:current-layer="pokebola"
     showguides="false" /><defs
     id="defs1" /><g
     inkscape:label="pokebola"
     inkscape:groupmode="layer"
     id="pokebola"><g
       id="g3"
       inkscape:label="fundo-branco"><path
         style="fill:#ffffff;stroke:#000000;stroke-width:0;stroke-linecap:round;stroke-linejoin:round;paint-order:fill markers stroke"
         d="m 7.3447132,20.656688 c -0.5399113,1.101826 1.9616106,1.69143 2.3061076,2.869074 0.3070739,1.049715 -1.1366086,2.498836 -0.3532226,3.262054 0.4249175,0.413978 1.2002728,-0.0522 1.7637778,-0.237664 0.573252,-0.188668 0.983663,-0.868201 1.587157,-0.871124 0.633829,-0.0031 1.065641,0.726814 1.675719,0.898722 0.51176,0.144204 1.210584,0.460869 1.592472,0.09093 0.782829,-0.758333 -0.422742,-2.233214 -0.08256,-3.268669 0.337166,-1.026275 2.453757,-1.585651 1.987203,-2.559945 C 16.312853,17.689875 8.881616,17.520249 7.3447132,20.656688 Z"
         id="path3"
         sodipodi:nodetypes="aaaaaaaaaa"
         inkscape:label="fundo-branco-estrela" /><path
         style="fill:#ffffff;stroke:#000000;stroke-width:0;stroke-linecap:round;stroke-linejoin:round;paint-order:fill markers stroke"
         id="path1"
         sodipodi:type="arc"
         sodipodi:cx="12.711501"
         sodipodi:cy="12.107565"
         sodipodi:rx="11.158515"
         sodipodi:ry="10.842166"
         sodipodi:start="0"
         sodipodi:end="6.2783342"
         sodipodi:arc-type="arc"
         d="M 23.870016,12.107565 A 11.158515,10.842166 0 0 1 12.725034,22.949723 11.158515,10.842166 0 0 1 1.553019,12.133863 11.158515,10.842166 0 0 1 12.670903,1.2654707 11.158515,10.842166 0 0 1 23.869885,12.054969"
         sodipodi:open="true"
         inkscape:label="fundo-branco-pokebola" /></g><path
       style="fill:#ff0000;stroke:#000000;stroke-width:0;stroke-linecap:round;stroke-linejoin:round;stroke-dasharray:none;paint-order:stroke fill markers"
       d="m 19.713573,12.041041 c -1.236881,-0.0408 -2.260221,-0.0858 -2.274093,-0.1 -0.01387,-0.0142 -0.109946,-0.27577 -0.213502,-0.58132 -0.333347,-0.98355 -0.637397,-1.4986596 -1.243064,-2.1059796 -0.438846,-0.44004 -0.814619,-0.70775 -1.391606,-0.9914 -0.723242,-0.35557 -1.221827,-0.47149 -2.027863,-0.47149 -0.565386,0 -0.727763,0.0174 -1.101066,0.11838 -0.958531,0.25912 -1.5820694,0.62232 -2.1976699,1.28008 -0.474651,0.50715 -0.599236,1.4385796 -0.938615,2.2736296 -0.140096,0.3447 -0.51317,0.30918 -0.555923,0.35806 -0.205207,0.23461 -0.238953,0.23781 -2.674881,0.2532 l -2.276983,0.0144 0.02304,-0.1074 c 0.01268,-0.0591 0.07563,-0.43447 0.139904,-0.83424 0.182531,-1.13537 0.2709502,-1.8243383 0.7806882,-2.8409583 1.068358,-2.13071 3.0138081,-4.1851737 5.0785031,-5.0935537 1.1194889,-0.49253 1.6637066,-0.4917576 3.9267166,-0.4889476 1.934189,0.002 2.64738,-0.046296 3.39427,0.2211042 0.885846,0.31703 1.788399,1.1841658 2.584573,1.8270258 1.668347,1.34708 2.99083,3.5092887 3.495849,5.4061386 0.09824,0.36901 0.153043,1.698611 0.154614,1.893671 2.7e-4,0.0394 -0.06949,0.0558 -0.216783,0.051 -0.119491,-0.004 -1.229245,-0.0406 -2.466124,-0.0814 z"
       id="fundo-cima"
       sodipodi:nodetypes="sssssscsssscssssccssccss"
       inkscape:label="fundo-cima" /><path
       style="fill:#ffffff;stroke:#000000;stroke-width:0;stroke-linecap:round;stroke-linejoin:round;stroke-dasharray:none;paint-order:stroke fill markers"
       d="m 5.3845051,11.888291 c 1.258514,0.0593 2.299608,0.11999 2.313547,0.13494 0.01393,0.015 0.10839,0.28884 0.209894,0.60861 0.326742,1.0294 0.629653,1.57027 1.238405,2.21129 0.44108,0.46448 0.8201595,0.74852 1.4038589,1.05189 0.731649,0.3803 1.237682,0.50783 2.058156,0.51873 0.575512,0.008 0.74102,-0.009 1.1223,-0.10845 0.979012,-0.25704 1.618362,-0.62705 2.253398,-1.30412 0.489635,-0.52204 0.851258,-1.11532 1.207391,-1.98087 0.147013,-0.35729 0.303418,-0.69083 0.347562,-0.74118 0.211881,-0.24168 0.246273,-0.24455 2.726029,-0.22765 l 2.317949,0.0158 -0.02482,0.11161 c -0.01366,0.0614 -0.08254,0.4517 -0.153076,0.86739 -0.200315,1.18063 -0.418658,1.84655 -0.950524,2.89897 -1.114734,2.20579 -2.688651,4.52217 -4.80194,5.44077 -1.145837,0.49808 -1.919059,0.10713 -4.222568,0.0736 -1.968802,-0.0287 -2.6300814,0.15417 -3.3869309,-0.13441 -0.89766,-0.34233 -1.735834,-0.63279 -2.53805,-1.31343 -1.681008,-1.42625 -3.036531,-4.18103 -3.526346,-6.16442 -0.09528,-0.38583 -0.325682,-1.82378 -0.324786,-2.02707 2.28e-4,-0.0411 0.07145,-0.0573 0.221316,-0.0502 0.121581,0.005 1.250744,0.0589 2.509255,0.11817 z"
       id="fundo-baixo"
       sodipodi:nodetypes="ccsscccsssscssssscsscccc"
       inkscape:label="fundo-baixo" /><path
       style="fill:#ffcc00;stroke:#e69e9e;stroke-width:0;stroke-linecap:round;stroke-linejoin:round;paint-order:stroke fill markers"
       d="m 11.329693,24.134921 c 0.150672,-0.84158 0.07881,-1.20248 -0.329399,-1.65429 -0.207684,-0.22986 -0.377608,-0.48697 -0.377608,-0.57133 0,-0.21004 0.332919,-0.37061 0.768443,-0.37061 0.475387,0 0.755756,-0.25124 0.985319,-0.88298 0.10308,-0.28366 0.23422,-0.51974 0.29142,-0.52461 0.0572,-0.004 0.206595,0.2485 0.331989,0.56302 0.260887,0.65441 0.467467,0.84398 0.921907,0.846 0.888019,0.004 0.997622,0.2586 0.412664,0.95869 -0.380338,0.45521 -0.380458,0.45568 -0.324987,1.26491 l 0.05549,0.80952 -0.539274,-0.36315 c -0.297389,-0.20026 -0.671588,-0.36313 -0.834267,-0.36313 -0.162246,0 -0.552942,0.16498 -0.868213,0.36664 l -0.573216,0.36666 z"
       id="estrela"
       inkscape:label="estrela" /><path
       style="display:inline;fill:#ffffff;stroke:#000000;stroke-width:0.079141;stroke-linecap:round;stroke-linejoin:round;stroke-dasharray:none;paint-order:stroke fill markers"
       d="m 11.936397,16.167831 c -0.833259,-0.18609 -1.51716,-0.55225 -2.0946094,-1.12146 -1.1521895,-1.13578 -1.4660625,-2.67366 -0.8612205,-4.21972 0.443062,-1.1325196 1.4275089,-1.9614696 2.7247589,-2.2943696 0.553649,-0.14208 1.429317,-0.13393 2.013571,0.0188 1.597034,0.41731 2.698859,1.6633696 2.892531,3.2712096 0.105025,0.87188 -0.146907,1.85197 -0.674617,2.62442 -0.231644,0.33908 -0.786389,0.88638 -1.128845,1.11368 -0.336923,0.22364 -0.792212,0.43733 -1.169539,0.54893 -0.387925,0.11472 -1.308641,0.14641 -1.70203,0.0585 z"
       id="botao-fundo"
       inkscape:label="botao-fundo" /><path
       style="fill:#ffffff;stroke:#000000;stroke-width:0.464059;stroke-linecap:round;stroke-linejoin:round;stroke-dasharray:none;paint-order:stroke fill markers"
       id="botao"
       sodipodi:type="arc"
       sodipodi:cx="12.683968"
       sodipodi:cy="12.34561"
       sodipodi:rx="3.0514987"
       sodipodi:ry="3.0334427"
       sodipodi:start="0"
       sodipodi:end="6.281941"
       sodipodi:open="true"
       sodipodi:arc-type="arc"
       d="M 15.735466,12.34561 A 3.0514987,3.0334427 0 0 1 12.684917,15.379052 3.0514987,3.0334427 0 0 1 9.6324695,12.347497 3.0514987,3.0334427 0 0 1 12.68112,9.3121683 3.0514987,3.0334427 0 0 1 15.735464,12.341835"
       inkscape:label="botao" /><path
       style="fill:#000000"
       d="m 10.017514,25.588391 c 0,-0.25562 0.121165,-0.8807 0.269255,-1.38906 0.258691,-0.88803 0.224949,-0.96253 -0.8598949,-1.8988 -1.326855,-1.14513 -1.18578,-1.47004 0.6900529,-1.58931 1.260245,-0.0801 1.300755,-0.10951 1.754115,-1.27264 0.25524,-0.65485 0.61178,-1.19063 0.79231,-1.19063 0.18053,0 0.53706,0.53578 0.79231,1.19063 0.45335,1.16313 0.49386,1.19252 1.75411,1.27264 1.87494,0.11921 2.01925,0.45106 0.69598,1.60045 -1.07412,0.93298 -1.11171,1.01577 -0.8599,1.89379 0.57257,1.99642 0.23291,2.28292 -1.39504,1.1767 l -0.98746,-0.67099 -0.98746,0.67099 c -1.159121,0.78764 -1.658378,0.84973 -1.658378,0.20623 z m 3.346758,-1.51808 0.70092,0.45927 -0.15921,-0.79606 c -0.1181,-0.59052 -0.0274,-0.91531 0.35117,-1.25794 0.61655,-0.55797 0.45363,-0.92034 -0.41375,-0.92034 -0.46287,0 -0.6869,-0.18367 -0.80682,-0.66145 -0.0913,-0.36381 -0.25926,-0.66146 -0.37323,-0.66146 -0.11397,0 -0.28193,0.29765 -0.37324,0.66146 -0.11991,0.47778 -0.34395,0.66145 -0.80682,0.66145 -0.867383,0 -1.030294,0.36237 -0.41375,0.92034 0.37861,0.34263 0.46928,0.66742 0.35117,1.25794 l -0.15921,0.79606 0.70092,-0.45927 c 0.66536,-0.43596 0.73649,-0.43596 1.40185,0 z m -8.4551999,-4.88717 c -1.977671,-2.13612 -2.662565,-3.91463 -2.65264,-6.88831 0.02017,-6.0433896 4.378988,-10.3988196 10.4069199,-10.3988196 4.60853,0 8.16148,2.44804 9.87215,6.80205 0.76059,1.9358596 0.7308,5.3176296 -0.065,7.3762296 -0.66733,1.72634 -3.20348,4.6872 -4.01485,4.6872 -0.27537,0 -0.50067,-0.0785 -0.50067,-0.17451 0,-0.096 0.66004,-0.8665 1.46675,-1.71225 1.56578,-1.64155 2.36796,-3.13489 2.65787,-4.9479 l 0.17967,-1.12363 -2.46147,0.0765 -2.46147,0.0766 -0.25935,0.79375 c -1.37617,4.2118 -7.3870159,4.27455 -8.7922819,0.0918 l -0.297506,-0.88552 -2.459916,-0.0766 -2.459917,-0.0765 0.179677,1.12363 c 0.289911,1.81301 1.09209,3.30635 2.657864,4.9479 0.806712,0.84575 1.46675,1.61626 1.46675,1.71225 0,0.096 -0.225301,0.17451 -0.500668,0.17451 -0.275367,0 -1.158241,-0.71025 -1.961941,-1.57835 z m 10.3295499,-4.31304 c 1.18373,-1.18372 1.45252,-2.97387 0.66171,-4.40691 -1.38656,-2.5126196 -5.283269,-2.4220896 -6.5355249,0.15183 -1.837526,3.77691 2.9116349,7.21727 5.8738149,4.25508 z M 8.1774391,11.038061 C 8.8978861,9.0486414 10.06059,7.9920014 11.893612,7.6608714 c 2.1068,-0.38059 4.45677,1.02846 5.14836,3.0869696 l 0.2975,0.88553 2.45992,0.0765 2.45991,0.0765 -0.17586,-1.13488 c -0.43309,-2.7948296 -2.62862,-5.6487596 -5.38799,-7.0037696 -1.34197,-0.65897 -1.81087,-0.74569 -4.0321,-0.74569 -2.152008,0 -2.7228574,0.0984 -3.9687549,0.68431 -2.735603,1.28641 -5.01273,4.23421 -5.44968,7.0547496 l -0.174201,1.12448 h 2.421614 c 2.401495,0 2.423804,-0.006 2.685109,-0.7276 z"
       id="borda"
       inkscape:label="borda" /><path
       style="fill:#ffffff;stroke:#000000;stroke-width:0;stroke-linecap:round;stroke-linejoin:round;paint-order:fill markers stroke"
       id="path2"
       sodipodi:type="arc"
       sodipodi:cx="12.855299"
       sodipodi:cy="12.342582"
       sodipodi:rx="1.7543014"
       sodipodi:ry="0.3212935"
       sodipodi:start="0"
       sodipodi:end="6.2783342"
       sodipodi:open="true"
       sodipodi:arc-type="arc"
       d="m 14.6096,12.342582 a 1.7543014,0.3212935 0 0 1 -1.752173,0.321293 1.7543014,0.3212935 0 0 1 -1.756424,-0.320514 1.7543014,0.3212935 0 0 1 1.747913,-0.322071 1.7543014,0.3212935 0 0 1 1.760664,0.319733" /></g></svg>
