<?xml version="1.0" encoding="UTF-8" standalone="no"?>
<!-- Created with Inkscape (http://www.inkscape.org/) -->

<svg
   width="25mm"
   height="28mm"
   viewBox="0 0 25 28"
   version="1.1"
   id="svg1"
   xml:space="preserve"
   inkscape:version="1.3 (0e150ed6c4, 2023-07-21)"
   sodipodi:docname="STAGE 2 BLACKTHEME.svg"
   xmlns:inkscape="http://www.inkscape.org/namespaces/inkscape"
   xmlns:sodipodi="http://sodipodi.sourceforge.net/DTD/sodipodi-0.dtd"
   xmlns="http://www.w3.org/2000/svg"
   xmlns:svg="http://www.w3.org/2000/svg"><sodipodi:namedview
     id="namedview1"
     pagecolor="#000000"
     bordercolor="#000000"
     borderopacity="0.25"
     inkscape:showpageshadow="2"
     inkscape:pageopacity="0.0"
     inkscape:pagecheckerboard="0"
     inkscape:deskcolor="#d1d1d1"
     inkscape:document-units="mm"
     inkscape:zoom="1.866066"
     inkscape:cx="54.392503"
     inkscape:cy="73.684426"
     inkscape:window-width="1920"
     inkscape:window-height="1009"
     inkscape:window-x="-8"
     inkscape:window-y="-8"
     inkscape:window-maximized="1"
     inkscape:current-layer="pokebola" /><defs
     id="defs1" /><g
     inkscape:label="pokebola"
     inkscape:groupmode="layer"
     id="pokebola"><g
       id="g3"
       inkscape:label="fundo-branco"
       transform="translate(-0.31383463,-0.19947262)"><path
         style="display:inline;fill:#ffffff;stroke:#000000;stroke-width:0;stroke-linecap:round;stroke-linejoin:round;paint-order:fill markers stroke"
         d="m 4.4441262,19.301994 c 0,0.251536 -2.1423249,0.697624 -2.264995,1.617164 -0.145745,1.092511 1.6710013,1.541519 2.0932755,2.559609 0.4269552,1.029376 -0.5990901,2.720889 0.3365681,3.326239 0.8503212,0.55014 1.8699056,-0.962803 2.8826697,-0.959952 1.1182117,0.0031 2.1892852,0.895116 3.1767905,1.077806 0.235392,0.04355 0.661079,-0.857318 0.662622,-1.584645 0.0018,-0.834787 -0.429395,-1.545795 -0.230895,-2.102404 0.169481,-0.475239 1.018404,-1.154406 1.255171,-1.153605 0.336076,0.0011 0.910665,0.431544 1.28889,1.504928 0.214438,0.608565 -0.307587,1.493985 -0.145099,2.150573 0.185115,0.748024 1.051992,1.22857 1.262652,1.1852 0.883743,-0.181941 1.586176,-1.012925 2.486694,-1.069251 1.028856,-0.06435 2.113172,1.429516 2.971171,0.858094 0.911587,-0.607111 -0.0059,-2.237541 0.375618,-3.26421 0.344503,-0.927168 1.784406,-1.471905 1.667977,-2.454131 -0.102522,-0.864892 -1.120237,-1.445322 -1.933232,-1.757713 -4.94299,-1.899332 -10.7460356,-1.207529 -15.8858778,0.0663 z"
         id="path3"
         sodipodi:nodetypes="saaaasssssssaaaaaas"
         transform="translate(0.31383463,0.19947262)"
         inkscape:label="fundo-branco-estrelas" /><path
         id="path1"
         style="fill:#ffffff;stroke:#000000;stroke-width:0;stroke-linecap:round;stroke-linejoin:round;paint-order:fill markers stroke"
         inkscape:label="fundo-branco-pokebola"
         d="m 23.870016,12.107565 c 0,2.517958 -0.883436,4.835629 -2.365704,6.676144 -1.815132,2.253827 -4.528247,3.792132 -7.616729,4.106499 -0.382101,0.03889 -0.802982,-2.451645 -1.195584,-2.451182 -0.455395,5.37e-4 -0.871422,2.485254 -1.312604,2.434258 C 9.0446172,22.603407 6.9305513,21.632894 5.2666669,20.1839 2.9938406,18.204609 1.5610039,15.332524 1.553019,12.133863 1.538084,6.1510521 6.5135503,1.2872381 12.670903,1.2654707 c 6.157353,-0.021768 11.169112,4.80674 11.198982,10.7894983"
         sodipodi:nodetypes="csssssssc" /></g><path
       style="fill:#ff0000;stroke:#000000;stroke-width:0;stroke-linecap:round;stroke-linejoin:round;stroke-dasharray:none;paint-order:stroke fill markers"
       d="m 19.406393,11.987957 c -1.23688,-0.0422 -2.26022,-0.0887 -2.27409,-0.10336 -0.0139,-0.0147 -0.10995,-0.28506 -0.2135,-0.60089 -0.33335,-1.01666 -0.6374,-1.5491105 -1.24307,-2.1768705 -0.43884,-0.45486 -0.81462,-0.73158 -1.3916,-1.02478 -0.72324,-0.36753 -1.22183,-0.48736 -2.02786,-0.48736 -0.56539,0 -0.72777,0.018 -1.10107,0.12237 -0.95853,0.26784 -1.5820701,0.64327 -2.1976701,1.32317 -0.47465,0.52422 -0.59924,1.4870005 -0.93862,2.3501605 -0.14009,0.35631 -0.51317,0.31959 -0.55592,0.37012 -0.20521,0.2425 -0.23895,0.24581 -2.674875,0.26172 l -2.27698,0.0149 0.023,-0.11101 c 0.0127,-0.0611 0.0756,-0.4491 0.1399,-0.86232 0.18253,-1.1735905 0.27095,-1.8857505 0.78069,-2.9366005 1.06836,-2.20243 3.013805,-4.32605 5.078495,-5.265 1.11949,-0.50911 1.6637101,-0.50832 3.9267201,-0.50541 1.93419,0.002 2.64738,-0.0479 3.39427,0.22855 0.88584,0.3277 1.7884,1.22402 2.58457,1.88852 1.66835,1.39243 2.99083,3.62742 3.49585,5.5881205 0.0982,0.38143 0.15304,1.75579 0.15461,1.95742 2.7e-4,0.0407 -0.0695,0.0577 -0.21678,0.0527 -0.11949,-0.004 -1.22924,-0.042 -2.46612,-0.0841 z"
       id="fundo-cima"
       sodipodi:nodetypes="sssssscsssscssssccssccss"
       inkscape:label="fundo-cima" /><path
       style="fill:#ffffff;stroke:#000000;stroke-width:0;stroke-linecap:round;stroke-linejoin:round;stroke-dasharray:none;paint-order:stroke fill markers"
       d="m 5.2189449,11.952457 c 1.258518,0.0593 2.299608,0.11999 2.313548,0.13494 0.0139,0.015 0.10839,0.28884 0.20989,0.60861 0.32674,1.0294 0.62966,1.57027 1.23841,2.21129 0.44108,0.46448 0.82016,0.74852 1.4038601,1.05189 0.73164,0.3803 1.23768,0.50783 2.05815,0.51873 0.57551,0.008 0.74102,-0.009 1.1223,-0.10845 0.97901,-0.25704 1.61836,-0.62705 2.2534,-1.30412 0.48963,-0.52204 0.85126,-1.11532 1.20739,-1.98087 0.14701,-0.35729 0.30342,-0.69083 0.34756,-0.74118 0.21188,-0.24168 0.24628,-0.24455 2.72603,-0.22765 l 2.31795,0.0158 -0.0248,0.11161 c -0.0137,0.0614 -0.0825,0.4517 -0.15307,0.86739 -0.20032,1.18063 -0.41866,1.84655 -0.95053,2.89897 -1.11473,2.20579 -2.68865,4.52217 -4.80194,5.44077 -1.14584,0.49808 -1.75375,0.38265 -4.05726,0.34912 -1.9688,-0.0287 -2.7953901,-0.12135 -3.5522401,-0.40993 -0.89766,-0.34233 -1.73583,-0.63279 -2.53805,-1.31343 -1.681005,-1.42625 -3.036528,-4.18103 -3.526343,-6.16442 -0.09528,-0.38583 -0.325682,-1.82378 -0.324786,-2.02707 2.28e-4,-0.0411 0.07145,-0.0573 0.221316,-0.0502 0.121581,0.005 1.250744,0.0589 2.509255,0.11817 z"
       id="fundo-baixo"
       sodipodi:nodetypes="ccsscccsssscssssscsscccc"
       inkscape:label="fundo-baixo" /><g
       id="estrelas"
       inkscape:label="estrelas"
       style="display:inline"><path
         style="fill:#ffcc00;stroke:#e69e9e;stroke-width:0;stroke-linecap:round;stroke-linejoin:round;paint-order:stroke fill markers"
         d="m 15.685883,24.217177 c 0.16596,-0.93017 0.0868,-1.32907 -0.3628,-1.82844 -0.22874,-0.25406 -0.41589,-0.53824 -0.41589,-0.63148 0,-0.23215 0.36668,-0.40962 0.84637,-0.40962 0.5236,0 0.83238,-0.27769 1.08524,-0.97594 0.11354,-0.31351 0.25797,-0.57445 0.32097,-0.57983 0.063,-0.004 0.22755,0.27466 0.36566,0.62228 0.28734,0.72331 0.51486,0.93283 1.01539,0.93506 0.97808,0.004 1.09881,0.28584 0.45452,1.05963 -0.41891,0.50313 -0.41904,0.50364 -0.35795,1.39806 l 0.0611,0.89475 -0.59396,-0.40138 c -0.32756,-0.22134 -0.73971,-0.40136 -0.91888,-0.40136 -0.17871,0 -0.60902,0.18235 -0.95626,0.40524 l -0.63135,0.40525 z"
         id="path2"
         inkscape:label="direita" /><path
         style="fill:#ffcc00;stroke:#e69e9e;stroke-width:0;stroke-linecap:round;stroke-linejoin:round;paint-order:stroke fill markers"
         d="m 6.1637099,24.207717 c 0.163913,-0.93017 0.08573,-1.32907 -0.358348,-1.82844 -0.225944,-0.25407 -0.410799,-0.53824 -0.410799,-0.63148 0,-0.23215 0.362181,-0.40962 0.83597,-0.40962 0.51718,0 0.82219,-0.2777 1.07193,-0.97594 0.11213,-0.31353 0.2548,-0.57446 0.31703,-0.57984 0.0622,-0.004 0.22475,0.27466 0.36117,0.62229 0.28382,0.7233 0.50855,0.93283 1.00294,0.93507 0.96607,0.004 1.0853001,0.28582 0.44893,1.0596 -0.41377,0.50314 -0.41391,0.50366 -0.35355,1.39807 l 0.0604,0.89475 -0.58668,-0.40138 c -0.32353,-0.22135 -0.73062,-0.40136 -0.9076,-0.40136 -0.1765,0 -0.60154,0.18234 -0.94452,0.40524 l -0.623584,0.40526 z"
         id="path2-5"
         inkscape:label="esquerda" /></g><path
       style="fill:#ffffff;stroke:#000000;stroke-width:0.079141;stroke-linecap:round;stroke-linejoin:round;stroke-dasharray:none;paint-order:stroke fill markers"
       d="m 11.638903,16.042017 c -0.83326,-0.18609 -1.51716,-0.55225 -2.0946101,-1.12146 -1.15219,-1.13578 -1.46606,-2.67366 -0.86122,-4.21972 0.44306,-1.1325205 1.4275101,-1.9614705 2.7247601,-2.2943705 0.55364,-0.14208 1.42931,-0.13393 2.01357,0.0188 1.59703,0.41731 2.69886,1.6633705 2.89253,3.2712105 0.10502,0.87188 -0.14691,1.85197 -0.67462,2.62442 -0.23164,0.33908 -0.78639,0.88638 -1.12884,1.11368 -0.33693,0.22364 -0.79222,0.43733 -1.16954,0.54893 -0.38793,0.11472 -1.30864,0.14641 -1.70203,0.0585 z"
       id="botao-fundo"
       inkscape:label="botao-fundo" /><path
       style="fill:#ffffff;stroke:#000000;stroke-width:0.464059;stroke-linecap:round;stroke-linejoin:round;stroke-dasharray:none;paint-order:stroke fill markers"
       id="botao"
       sodipodi:type="arc"
       sodipodi:cx="12.386475"
       sodipodi:cy="12.219802"
       sodipodi:rx="3.0514987"
       sodipodi:ry="3.0334427"
       sodipodi:start="0"
       sodipodi:end="6.281941"
       sodipodi:open="true"
       sodipodi:arc-type="arc"
       d="M 15.437973,12.219802 A 3.0514987,3.0334427 0 0 1 12.387424,15.253244 3.0514987,3.0334427 0 0 1 9.3349765,12.221689 3.0514987,3.0334427 0 0 1 12.383627,9.1863605 3.0514987,3.0334427 0 0 1 15.437971,12.216027"
       inkscape:label="botao" /><path
       style="display:inline;fill:#000000"
       d="m 4.9886899,25.441177 c 0,-0.25562 0.12116,-0.8807 0.26925,-1.38906 0.25869,-0.88803 0.22495,-0.96254 -0.85989,-1.8988 -1.32686,-1.14513 -1.18578,-1.47005 0.69005,-1.58931 1.260253,-0.0801 1.300753,-0.10952 1.754113,-1.27265 0.25524,-0.65484 0.61178,-1.19062 0.79231,-1.19062 0.18053,0 0.53706,0.53578 0.79231,1.19062 0.45335,1.16313 0.49386,1.19252 1.7541101,1.27265 1.87494,0.1192 2.01925,0.45106 0.69598,1.60045 -1.0741201,0.93297 -1.1117101,1.01576 -0.8599,1.89379 0.57257,1.99642 0.23291,2.28292 -1.3950401,1.1767 l -0.98746,-0.671 -0.98746,0.671 c -1.159123,0.78764 -1.658373,0.84973 -1.658373,0.20623 z m 3.346753,-1.51808 0.70092,0.45926 -0.15921,-0.79605 c -0.1181,-0.59052 -0.0274,-0.91531 0.35117,-1.25795 0.61655,-0.55796 0.45364,-0.92033 -0.41375,-0.92033 -0.46287,0 -0.6869,-0.18368 -0.80682,-0.66146 -0.0913,-0.3638 -0.25926,-0.66146 -0.37323,-0.66146 -0.11397,0 -0.28192,0.29766 -0.37323,0.66146 -0.11992,0.47778 -0.34396,0.66146 -0.80682,0.66146 -0.867393,0 -1.030303,0.36237 -0.413763,0.92033 0.378613,0.34264 0.469283,0.66743 0.351183,1.25795 l -0.15922,0.79605 0.70093,-0.45926 c 0.66535,-0.43596 0.73648,-0.43596 1.40184,0 z m 6.1782401,1.51808 c 0,-0.25562 0.12117,-0.8807 0.26926,-1.38906 0.25869,-0.88803 0.22495,-0.96254 -0.8599,-1.8988 -1.32685,-1.14513 -1.18578,-1.47005 0.69006,-1.58931 1.26024,-0.0801 1.30075,-0.10952 1.75411,-1.27265 0.25524,-0.65484 0.61178,-1.19062 0.79231,-1.19062 0.18053,0 0.53706,0.53578 0.79231,1.19062 0.45335,1.16313 0.49386,1.19252 1.75411,1.27265 1.87494,0.1192 2.01925,0.45106 0.69598,1.60045 -1.07412,0.93297 -1.11171,1.01576 -0.8599,1.89379 0.57257,1.99642 0.2329,2.28292 -1.39504,1.1767 l -0.98746,-0.671 -0.98746,0.671 c -1.15912,0.78764 -1.65838,0.84973 -1.65838,0.20623 z m 3.34676,-1.51808 0.70092,0.45926 -0.15921,-0.79605 c -0.1181,-0.59052 -0.0274,-0.91531 0.35117,-1.25795 0.61655,-0.55796 0.45363,-0.92033 -0.41375,-0.92033 -0.46287,0 -0.68691,-0.18368 -0.80682,-0.66146 -0.0913,-0.3638 -0.25926,-0.66146 -0.37323,-0.66146 -0.11397,0 -0.28193,0.29766 -0.37324,0.66146 -0.11991,0.47778 -0.34395,0.66146 -0.80681,0.66146 -0.86739,0 -1.0303,0.36237 -0.41376,0.92033 0.37861,0.34264 0.46928,0.66743 0.35117,1.25795 l -0.15921,0.79605 0.70092,-0.45926 c 0.66536,-0.43596 0.73649,-0.43596 1.40185,0 z M 4.0853799,18.452457 c -1.44292,-1.68573 -2.0869,-3.62969 -2.08862,-6.30485 -0.004,-6.0270005 4.368563,-10.3988105 10.4002631,-10.3988105 6.0317,0 10.40412,4.37181 10.40025,10.3988105 -0.002,2.67516 -0.64569,4.61912 -2.08861,6.30485 -1.6212,1.894 -2.05902,1.13514 -0.51336,-0.88979 0.8682,-1.13741 1.72672,-3.33236 1.72672,-4.41467 0,-0.44821 -0.2118,-0.48444 -2.426,-0.415 l -2.42599,0.0761 -0.25935,0.79375 c -1.37617,4.21181 -7.3870201,4.27455 -8.7922801,0.0918 l -0.29751,-0.88553 -2.424433,-0.0761 c -2.21269,-0.0694 -2.42444,-0.0332 -2.42444,0.415 0,1.08231 0.85851,3.27726 1.72672,4.41467 1.54566,2.02493 1.10784,2.78379 -0.51336,0.88979 z m 9.7237031,-2.84886 c 0.95595,-0.36345 2.00367,-1.60458 2.18915,-2.59327 0.6963,-3.7116205 -3.52802,-6.0864005 -6.1926001,-3.4812805 -1.83546,1.7945105 -1.2144,5.1143705 1.1361801,6.0733105 0.73045,0.29799 2.08521,0.29858 2.86727,0.001 z m -5.8979701,-4.71276 c 0.72044,-1.9894105 1.88315,-3.0460605 3.7161701,-3.3771905 2.1068,-0.38058 4.45677,1.02847 5.14835,3.0869805 l 0.29751,0.88552 2.45992,0.0765 2.45991,0.0765 -0.17586,-1.13488 c -0.43309,-2.7948205 -2.62862,-5.6487605 -5.38799,-7.0037605 -1.34197,-0.65898 -1.81087,-0.7457 -4.0321,-0.7457 -2.15201,0 -2.7228601,0.0984 -3.9687501,0.68431 -2.735603,1.28641 -5.012733,4.23421 -5.449683,7.0547605 l -0.1742,1.12448 h 2.42161 c 2.401493,0 2.423803,-0.006 2.685113,-0.72761 z"
       id="borda"
       inkscape:label="borda" /></g></svg>
